<svg width="13" height="13" viewBox="0 0 13 13" fill="none" xmlns="http://www.w3.org/2000/svg">
<path d="M4.66668 2.33334H2.00001C1.63182 2.33334 1.33334 2.63182 1.33334 3.00001V11C1.33334 11.3682 1.63182 11.6667 2.00001 11.6667H10C10.3682 11.6667 10.6667 11.3682 10.6667 11V8.33334" stroke="white" stroke-width="2" stroke-linecap="round" stroke-linejoin="round"/>
<path d="M10.3333 4.99999C10.3333 5.55227 10.781 5.99999 11.3333 5.99999C11.8856 5.99999 12.3333 5.55227 12.3333 4.99999L10.3333 4.99999ZM11.3333 1.66666L12.3333 1.66666C12.3333 1.40144 12.228 1.14709 12.0404 0.95955C11.8529 0.772013 11.5985 0.666656 11.3333 0.666656V1.66666ZM8 0.666656C7.44772 0.666656 7 1.11437 7 1.66666C7 2.21894 7.44772 2.66666 8 2.66666V0.666656ZM12.3333 4.99999V1.66666L10.3333 1.66666L10.3333 4.99999L12.3333 4.99999ZM11.3333 0.666656H8V2.66666H11.3333V0.666656Z" fill="white"/>
<path d="M5.95955 5.62622C5.56903 6.01674 5.56903 6.64991 5.95955 7.04043C6.35007 7.43095 6.98324 7.43095 7.37376 7.04043L5.95955 5.62622ZM12.0404 2.37376C12.431 1.98324 12.431 1.35007 12.0404 0.95955C11.6499 0.569025 11.0167 0.569025 10.6262 0.95955L12.0404 2.37376ZM7.37376 7.04043L12.0404 2.37376L10.6262 0.95955L5.95955 5.62622L7.37376 7.04043Z" fill="white"/>
</svg>
