<svg width="12" height="12" viewBox="0 0 12 12" fill="none" xmlns="http://www.w3.org/2000/svg">
<path d="M4.33333 1.66669H1.66667C1.29848 1.66669 1 1.96516 1 2.33335V10.3334C1 10.7015 1.29848 11 1.66667 11H9.66667C10.0349 11 10.3333 10.7015 10.3333 10.3334V7.66669" stroke="#2E3435" stroke-width="2" stroke-linecap="round" stroke-linejoin="round"/>
<path d="M9.99984 4.33333C9.99984 4.88562 10.4476 5.33333 10.9998 5.33333C11.5521 5.33333 11.9998 4.88562 11.9998 4.33333L9.99984 4.33333ZM10.9998 1L11.9998 1C11.9998 0.734784 11.8945 0.48043 11.7069 0.292893C11.5194 0.105357 11.2651 0 10.9998 0V1ZM7.6665 0C7.11422 0 6.6665 0.447715 6.6665 1C6.6665 1.55228 7.11422 2 7.6665 2V0ZM11.9998 4.33333L11.9998 1L9.99984 1L9.99984 4.33333L11.9998 4.33333ZM10.9998 0H7.6665V2H10.9998V0Z" fill="#2E3435"/>
<path d="M5.62639 4.95956C5.23586 5.35008 5.23587 5.98325 5.62639 6.37377C6.01691 6.7643 6.65008 6.7643 7.0406 6.37377L5.62639 4.95956ZM11.7073 1.70711C12.0978 1.31658 12.0978 0.683417 11.7073 0.292893C11.3167 -0.0976311 10.6836 -0.097631 10.2931 0.292893L11.7073 1.70711ZM7.0406 6.37377L11.7073 1.70711L10.2931 0.292893L5.62639 4.95956L7.0406 6.37377Z" fill="#2E3435"/>
</svg>
