<svg width="540" height="540" viewBox="0 0 540 540" fill="none" xmlns="http://www.w3.org/2000/svg">
<path fill-rule="evenodd" clip-rule="evenodd" d="M270 540C419.117 540 540 419.117 540 270C540 120.883 419.117 0 270 0C120.883 0 0 120.883 0 270C0 419.117 120.883 540 270 540ZM428.485 369.754C394.781 422.8 335.501 458 268 458C163.066 458 78 372.934 78 268C78 163.066 163.066 78 268 78C335.501 78 394.781 113.2 428.485 166.246C443.826 190.392 423.171 218 394.564 218C378.263 218 363.863 208.356 353.193 196.033C333.023 172.737 303.233 158 270 158C209.249 158 160 207.249 160 268C160 289.337 166.075 309.256 176.59 326.12L192.033 310.677C201.796 300.914 217.625 300.914 227.388 310.677C237.151 320.44 237.151 336.269 227.388 346.032L211.961 361.46C228.808 371.944 248.697 378 270 378C303.233 378 333.023 363.263 353.193 339.967C363.863 327.644 378.263 318 394.564 318C423.171 318 443.826 345.608 428.485 369.754ZM295 268C295 281.807 283.807 293 270 293C256.193 293 245 281.807 245 268C245 254.193 256.193 243 270 243C283.807 243 295 254.193 295 268Z" fill="white"/>
</svg>
