<svg width="18" height="18" viewBox="0 0 18 18" fill="none" xmlns="http://www.w3.org/2000/svg">
<path d="M8.29289 11.2929C7.90237 11.6834 7.90237 12.3166 8.29289 12.7071C8.68342 13.0976 9.31658 13.0976 9.70711 12.7071L8.29289 11.2929ZM12 9L12.7071 9.70711C12.8946 9.51957 13 9.26522 13 9C13 8.73478 12.8946 8.48043 12.7071 8.29289L12 9ZM9.70711 5.29289C9.31658 4.90237 8.68342 4.90237 8.29289 5.29289C7.90237 5.68342 7.90237 6.31658 8.29289 6.70711L9.70711 5.29289ZM1 8C0.447715 8 0 8.44772 0 9C5.96046e-08 9.55228 0.447715 10 1 10L1 8ZM9.70711 12.7071L12.7071 9.70711L11.2929 8.29289L8.29289 11.2929L9.70711 12.7071ZM12.7071 8.29289L9.70711 5.29289L8.29289 6.70711L11.2929 9.70711L12.7071 8.29289ZM1 10L12 10V8L1 8L1 10Z" fill="#2E3435"/>
<path d="M1 4V2C1 1.44772 1.44772 1 2 1H16C16.5523 1 17 1.44772 17 2V16C17 16.5523 16.5523 17 16 17H2C1.44772 17 1 16.5523 1 16V14" stroke="#2E3435" stroke-width="2" stroke-linecap="round" stroke-linejoin="round"/>
</svg>
